<mxfile host="app.diagrams.net" modified="2025-09-09T00:00:00.000Z" agent="5.0" etag="drawio-diagram" version="21.6.8" type="device">
  <diagram name="Page-1" id="architecture-diagram">
    <mxGraphModel dx="1422" dy="794" grid="1" gridSize="10" guides="1" tooltips="1" connect="1" arrows="1" fold="1" page="1" pageScale="1" pageWidth="827" pageHeight="1169" math="0" shadow="0">
      <root>
        <mxCell id="0" />
        <mxCell id="1" parent="0" />
        
        <!-- Frontend Layer -->
        <mxCell id="frontend-container" value="Frontend (Angular 19 PWA)" parent="1" vertex="1">
          <mxGeometry x="200" y="80" width="600" height="120" as="geometry" />
        </mxCell>
        <mxCell id="frontend-container" value="" style="rounded=1;whiteSpace=wrap;html=1;fillColor=#e1d5e7;strokeColor=#9673a6;strokeWidth=2;" parent="1" vertex="1">
          <mxGeometry x="200" y="80" width="600" height="120" as="geometry" />
        </mxCell>
        <mxCell id="frontend-title" value="Frontend (Angular 19 PWA)" style="text;html=1;strokeColor=none;fillColor=none;align=center;verticalAlign=middle;whiteSpace=wrap;rounded=0;fontSize=16;fontStyle=1;" parent="1" vertex="1">
          <mxGeometry x="450" y="90" width="200" height="30" as="geometry" />
        </mxCell>
        
        <!-- Frontend Components -->
        <mxCell id="citizen-portal" value="Citizen&#xa;Portal" style="rounded=1;whiteSpace=wrap;html=1;fillColor=#dae8fc;strokeColor=#6c8ebf;" parent="1" vertex="1">
          <mxGeometry x="220" y="130" width="120" height="60" as="geometry" />
        </mxCell>
        <mxCell id="officer-portal" value="Officer&#xa;Portal" style="rounded=1;whiteSpace=wrap;html=1;fillColor=#dae8fc;strokeColor=#6c8ebf;" parent="1" vertex="1">
          <mxGeometry x="360" y="130" width="120" height="60" as="geometry" />
        </mxCell>
        <mxCell id="admin-dashboard" value="Admin&#xa;Dashboard" style="rounded=1;whiteSpace=wrap;html=1;fillColor=#dae8fc;strokeColor=#6c8ebf;" parent="1" vertex="1">
          <mxGeometry x="500" y="130" width="120" height="60" as="geometry" />
        </mxCell>
        <mxCell id="auth-system" value="Auth&#xa;System" style="rounded=1;whiteSpace=wrap;html=1;fillColor=#dae8fc;strokeColor=#6c8ebf;" parent="1" vertex="1">
          <mxGeometry x="640" y="130" width="120" height="60" as="geometry" />
        </mxCell>
        
        <!-- API Layer -->
        <mxCell id="api-container" value="" style="rounded=1;whiteSpace=wrap;html=1;fillColor=#f8cecc;strokeColor=#b85450;strokeWidth=2;" parent="1" vertex="1">
          <mxGeometry x="200" y="280" width="600" height="120" as="geometry" />
        </mxCell>
        <mxCell id="api-title" value=".NET Core 8.0 API (ASP.NET Core)" style="text;html=1;strokeColor=none;fillColor=none;align=center;verticalAlign=middle;whiteSpace=wrap;rounded=0;fontSize=16;fontStyle=1;" parent="1" vertex="1">
          <mxGeometry x="400" y="290" width="200" height="30" as="geometry" />
        </mxCell>
        
        <!-- API Services -->
        <mxCell id="incident-service" value="Incident&#xa;Management&#xa;Service" style="rounded=1;whiteSpace=wrap;html=1;fillColor=#fff2cc;strokeColor=#d6b656;" parent="1" vertex="1">
          <mxGeometry x="220" y="330" width="120" height="60" as="geometry" />
        </mxCell>
        <mxCell id="reporting-service" value="Reporting&#xa;Service" style="rounded=1;whiteSpace=wrap;html=1;fillColor=#fff2cc;strokeColor=#d6b656;" parent="1" vertex="1">
          <mxGeometry x="360" y="330" width="120" height="60" as="geometry" />
        </mxCell>
        <mxCell id="tracking-service" value="Tracking&#xa;Service" style="rounded=1;whiteSpace=wrap;html=1;fillColor=#fff2cc;strokeColor=#d6b656;" parent="1" vertex="1">
          <mxGeometry x="500" y="330" width="120" height="60" as="geometry" />
        </mxCell>
        <mxCell id="notification-service" value="Notification&#xa;Service" style="rounded=1;whiteSpace=wrap;html=1;fillColor=#fff2cc;strokeColor=#d6b656;" parent="1" vertex="1">
          <mxGeometry x="640" y="330" width="120" height="60" as="geometry" />
        </mxCell>
        
        <!-- Entity Framework -->
        <mxCell id="ef-container" value="" style="rounded=1;whiteSpace=wrap;html=1;fillColor=#d5e8d4;strokeColor=#82b366;strokeWidth=2;" parent="1" vertex="1">
          <mxGeometry x="300" y="480" width="400" height="80" as="geometry" />
        </mxCell>
        <mxCell id="ef-title" value="Entity Framework Core 8.0" style="text;html=1;strokeColor=none;fillColor=none;align=center;verticalAlign=middle;whiteSpace=wrap;rounded=0;fontSize=16;fontStyle=1;" parent="1" vertex="1">
          <mxGeometry x="450" y="510" width="200" height="30" as="geometry" />
        </mxCell>
        
        <!-- Database -->
        <mxCell id="db-container" value="" style="rounded=1;whiteSpace=wrap;html=1;fillColor=#f5f5f5;strokeColor=#666666;strokeWidth=2;" parent="1" vertex="1">
          <mxGeometry x="300" y="640" width="400" height="100" as="geometry" />
        </mxCell>
        <mxCell id="db-title" value="SQL Server&#xa;(with Spatial Data)" style="text;html=1;strokeColor=none;fillColor=none;align=center;verticalAlign=middle;whiteSpace=wrap;rounded=0;fontSize=16;fontStyle=1;" parent="1" vertex="1">
          <mxGeometry x="450" y="675" width="200" height="40" as="geometry" />
        </mxCell>
        
        <!-- Connection Arrows -->
        <mxCell id="frontend-to-api" value="HTTP/HTTPS + JWT" style="edgeStyle=orthogonalEdgeStyle;rounded=0;orthogonalLoop=1;jettySize=auto;html=1;strokeWidth=2;fillColor=#0050ef;strokeColor=#001DBC;" parent="1" source="frontend-container" target="api-container" edge="1">
          <mxGeometry relative="1" as="geometry">
            <mxPoint x="500" y="200" as="sourcePoint" />
            <mxPoint x="500" y="280" as="targetPoint" />
          </mxGeometry>
        </mxCell>
        
        <mxCell id="api-to-ef" value="" style="edgeStyle=orthogonalEdgeStyle;rounded=0;orthogonalLoop=1;jettySize=auto;html=1;strokeWidth=2;fillColor=#60a917;strokeColor=#2D7600;" parent="1" source="api-container" target="ef-container" edge="1">
          <mxGeometry relative="1" as="geometry">
            <mxPoint x="500" y="400" as="sourcePoint" />
            <mxPoint x="500" y="480" as="targetPoint" />
          </mxGeometry>
        </mxCell>
        
        <mxCell id="ef-to-db" value="" style="edgeStyle=orthogonalEdgeStyle;rounded=0;orthogonalLoop=1;jettySize=auto;html=1;strokeWidth=2;fillColor=#647687;strokeColor=#314354;" parent="1" source="ef-container" target="db-container" edge="1">
          <mxGeometry relative="1" as="geometry">
            <mxPoint x="500" y="560" as="sourcePoint" />
            <mxPoint x="500" y="640" as="targetPoint" />
          </mxGeometry>
        </mxCell>
        
      </root>
    </mxGraphModel>
  </diagram>
</mxfile>